<svg height="512" viewBox="0 0 256 256" width="512" xmlns="http://www.w3.org/2000/svg"><path d="m203.687 164.76a2.494 2.494 0 0 1 -1.541-.532 19.78 19.78 0 0 0 -14.78-4.116 2.5 2.5 0 0 1 -2.747-2.944 21.095 21.095 0 0 0 -20.008-25.191 2.5 2.5 0 0 1 .2-5 26.3 26.3 0 0 1 25.181 27.3c-.01.221-.022.444-.038.669.265 0 .526.006.784.016a24.989 24.989 0 0 1 14.49 5.323 2.5 2.5 0 0 1 -1.543 4.468z" fill="#ebe7f2"/><path d="m107.747 106.139a2.5 2.5 0 0 1 -2.016-3.976 27.579 27.579 0 0 1 40.511-4.414 2.5 2.5 0 0 1 -3.309 3.749 22.579 22.579 0 0 0 -33.167 3.617 2.5 2.5 0 0 1 -2.019 1.024z" fill="#ebe7f2"/><path d="m45.181 180.341a2.5 2.5 0 0 1 -2.5-2.5 24.672 24.672 0 0 1 23.541-24.616q-.009-.306-.009-.606a25.745 25.745 0 0 1 25.716-25.719 2.5 2.5 0 1 1 0 5 20.553 20.553 0 0 0 -20.5 23.542 2.5 2.5 0 0 1 -2.66 2.831l-.12-.009c-.44-.032-.88-.067-1.329-.067a19.663 19.663 0 0 0 -19.641 19.641 2.5 2.5 0 0 1 -2.498 2.503z" fill="#ebe7f2"/><g fill="#846f75"><path d="m200.307 144.253q-.607 0-1.238.033c.017-.376.026-.744.026-1.109a29.431 29.431 0 0 0 -34.795-28.948 36.355 36.355 0 0 0 -72.622.469 29.134 29.134 0 0 0 -7.43-.962 29.474 29.474 0 0 0 -29.44 29.441c0 .357.008.719.025 1.089a28.194 28.194 0 0 0 .86 56.374h89.453a2.5 2.5 0 0 0 0-5h-89.453a23.194 23.194 0 0 1 0-46.387c.532 0 1.053.04 1.575.079l.136.01a2.5 2.5 0 0 0 2.66-2.832 24.391 24.391 0 0 1 33.215-26.029 2.5 2.5 0 0 0 3.421-2.462c-.033-.59-.054-1.184-.054-1.783a31.354 31.354 0 0 1 62.708 0c0 .3-.011.6-.021.9l-.006.182a2.5 2.5 0 0 0 3.224 2.477 24.3 24.3 0 0 1 31.249 26.942 2.5 2.5 0 0 0 2.863 2.832 23.18 23.18 0 1 1 3.64 46.071 2.5 2.5 0 0 0 0 5 28.194 28.194 0 0 0 0-56.387z"/><path d="m200.823 111.764a39.888 39.888 0 0 0 18.734-4.676 2.5 2.5 0 0 0 0-4.41 34.82 34.82 0 0 1 0-61.44 2.5 2.5 0 0 0 0-4.41 39.809 39.809 0 1 0 -18.734 74.936zm0-74.612a34.956 34.956 0 0 1 12.242 2.218 39.821 39.821 0 0 0 0 65.176 34.808 34.808 0 1 1 -12.242-67.394z"/><path d="m46.676 77.983 8.732 6.345-3.336 10.266a4.646 4.646 0 0 0 1.714 5.27 4.643 4.643 0 0 0 5.539 0l8.733-6.344 8.732 6.344a4.712 4.712 0 0 0 7.252-5.269l-3.335-10.267 8.733-6.345a4.712 4.712 0 0 0 -2.77-8.525h-10.794l-3.336-10.266a4.713 4.713 0 0 0 -8.964 0l-3.336 10.266h-10.794a4.712 4.712 0 0 0 -2.77 8.525zm13.773-3.525a4.7 4.7 0 0 0 4.482-3.258l3.127-9.624 3.127 9.624a4.7 4.7 0 0 0 4.482 3.257h10.119l-8.186 5.949a4.7 4.7 0 0 0 -1.711 5.269l3.125 9.625-8.186-5.948a4.7 4.7 0 0 0 -5.54 0l-8.188 5.948 3.128-9.625a4.7 4.7 0 0 0 -1.713-5.268l-8.185-5.949z"/><path d="m188.975 195.64h-9.306l-2.875-8.849a4.451 4.451 0 0 0 -8.467 0l-2.876 8.849h-9.305a4.452 4.452 0 0 0 -2.617 8.053l7.529 5.47-2.876 8.849a4.452 4.452 0 0 0 6.851 4.977l7.527-5.469 7.528 5.469a4.451 4.451 0 0 0 6.85-4.977l-2.875-8.849 7.528-5.47a4.452 4.452 0 0 0 -2.616-8.053zm-8.174 9.712a4.44 4.44 0 0 0 -1.616 4.977l2.477 7.623-6.486-4.712a4.444 4.444 0 0 0 -5.233 0l-6.484 4.712 2.477-7.623a4.442 4.442 0 0 0 -1.617-4.977l-6.485-4.712h8.016a4.44 4.44 0 0 0 4.233-3.076l2.477-7.624 2.477 7.624a4.44 4.44 0 0 0 4.234 3.076h8.015z"/></g><path d="m152.133 127.93-37.741-7.946a2.5 2.5 0 0 0 -3.015 2.447v28.3a13.415 13.415 0 1 0 5 10.437v-35.656l32.741 6.893v26.268a13.415 13.415 0 1 0 5 10.437v-38.734a2.5 2.5 0 0 0 -1.985-2.446zm-49.181 41.66a8.425 8.425 0 1 1 8.425-8.425 8.434 8.434 0 0 1 -8.425 8.425zm37.741 7.946a8.425 8.425 0 1 1 8.425-8.426 8.435 8.435 0 0 1 -8.425 8.426z" fill="#ed9abc"/></svg>