<svg height="512" viewBox="0 0 256 256" width="512" xmlns="http://www.w3.org/2000/svg"><path d="m206.306 157.205h-32.906a2.5 2.5 0 0 1 0-5h32.9a2.5 2.5 0 0 1 0 5z" fill="#f9b087"/><path d="m118.976 204.515c-31.39 0-56.928-35.538-56.928-79.22 0-18.6 4.708-36.672 13.258-50.881a2.5 2.5 0 1 1 4.284 2.578c-8.088 13.442-12.542 30.6-12.542 48.3 0 40.925 23.3 74.22 51.928 74.22s51.924-33.292 51.924-74.212-23.295-74.218-51.927-74.218a39.3 39.3 0 0 0 -23.2 7.84 2.5 2.5 0 0 1 -2.915-4.062 44.786 44.786 0 0 1 26.12-8.778c31.389 0 56.927 35.537 56.927 79.218s-25.54 79.215-56.929 79.215z" fill="#ebe7f2"/><path d="m118.976 182.223c-43.682 0-79.219-25.538-79.219-56.928s35.537-56.926 79.219-56.926 79.224 25.537 79.224 56.931a2.5 2.5 0 1 1 -5 0c0-28.632-33.295-51.926-74.219-51.926s-74.224 23.289-74.224 51.926 33.294 51.928 74.219 51.928c18.9 0 36.916-5 50.728-14.065a2.5 2.5 0 1 1 2.744 4.179c-14.617 9.594-33.608 14.881-53.472 14.881z" fill="#ebe7f2"/><path d="m118.976 204.515c-15.4 0-23.7-40.816-23.7-79.22s8.308-79.218 23.705-79.218 23.705 40.815 23.705 79.218-8.313 79.22-23.71 79.22zm0-153.438c-3.327 0-8.38 5.421-12.585 20.636-3.947 14.28-6.12 33.308-6.12 53.582s2.173 39.3 6.12 53.583c4.2 15.215 9.258 20.637 12.585 20.637s8.379-5.422 12.585-20.637c3.946-14.279 6.12-33.309 6.12-53.583s-2.174-39.3-6.12-53.582c-4.206-15.213-9.261-20.636-12.585-20.636z" fill="#ebe7f2"/><path d="m118.976 149c-38.4 0-79.219-8.308-79.219-23.706s40.815-23.7 79.219-23.7 79.224 8.306 79.224 23.706a2.5 2.5 0 1 1 -5 0c0-3.326-5.422-8.379-20.637-12.584-14.279-3.947-33.308-6.121-53.582-6.121s-39.3 2.174-53.583 6.121c-15.215 4.2-20.636 9.258-20.636 12.584s5.421 8.38 20.636 12.585c14.275 3.942 33.302 6.115 53.578 6.115 20.681 0 40.686-2.365 54.885-6.49a2.5 2.5 0 0 1 1.4 4.8c-14.854 4.316-34.842 6.69-56.285 6.69z" fill="#ebe7f2"/><path d="m214.515 34.788-22.3-4.694a2.5 2.5 0 0 0 -3.015 2.447v14.859a8.947 8.947 0 1 0 5 8.021v-19.8l17.3 3.641v12.838a8.95 8.95 0 1 0 -3.954 16.976 8.964 8.964 0 0 0 8.954-8.954v-22.888a2.5 2.5 0 0 0 -1.985-2.446zm-29.265 24.59a3.955 3.955 0 1 1 3.954-3.955 3.959 3.959 0 0 1 -3.954 3.955zm22.3 4.694a3.955 3.955 0 1 1 3.954-3.954 3.959 3.959 0 0 1 -3.958 3.954z" fill="#f9b087"/><g fill="#846f75"><path d="m100.509 53.392a74.285 74.285 0 0 1 92.691 71.908 2.5 2.5 0 1 0 5 0 79.286 79.286 0 0 0 -98.931-76.752 2.5 2.5 0 0 0 1.24 4.844z"/><path d="m169.375 179.778a74.219 74.219 0 0 1 -103.589-106.244 2.5 2.5 0 0 0 -3.586-3.488 79.219 79.219 0 0 0 110.569 113.4 2.5 2.5 0 1 0 -3.4-3.67z"/><path d="m209.8 161.17-4.149-27.759a2.5 2.5 0 0 0 -2.472-2.13h-27.142a2.5 2.5 0 0 0 -2.473 2.13l-4.148 27.759a20.407 20.407 0 0 0 17.692 23.275v36.514h-8.308a2.5 2.5 0 0 0 0 5h21.62a2.5 2.5 0 1 0 0-5h-8.312v-36.514a20.407 20.407 0 0 0 17.692-23.275zm-8.513 13.08a15.416 15.416 0 0 1 -26.926-12.341l3.83-25.628h22.833l3.83 25.628a15.4 15.4 0 0 1 -3.567 12.341z"/><path d="m52.591 62.313h2.728a22.07 22.07 0 0 1 22.045 22.046v2.727a2.5 2.5 0 0 0 5 0v-2.727a22.071 22.071 0 0 1 22.046-22.046h2.727a2.5 2.5 0 0 0 0-5h-2.727a22.07 22.07 0 0 1 -22.046-22.045v-2.727a2.5 2.5 0 0 0 -5 0v2.727a22.07 22.07 0 0 1 -22.045 22.045h-2.728a2.5 2.5 0 1 0 0 5zm27.273-15.708a27.2 27.2 0 0 0 13.209 13.208 27.21 27.21 0 0 0 -13.209 13.209 27.208 27.208 0 0 0 -13.208-13.209 27.2 27.2 0 0 0 13.208-13.208z"/><path d="m88.948 157.551a2.5 2.5 0 0 0 -.015 4.409 41.7 41.7 0 0 0 19.578 4.962h.151a41.638 41.638 0 1 0 -19.462-78.453 2.5 2.5 0 0 0 -.016 4.41 36.651 36.651 0 0 1 -.232 64.672zm24.514-32.251a41.585 41.585 0 0 0 -17.784-34.282 37.333 37.333 0 0 1 13.114-2.37 36.638 36.638 0 0 1 -.13 73.275h-.134a36.8 36.8 0 0 1 -13.095-2.464 41.581 41.581 0 0 0 18.029-34.159z"/></g><path d="m47.249 216.443a7.749 7.749 0 1 1 7.751-7.749 7.758 7.758 0 0 1 -7.751 7.749zm0-10.5a2.749 2.749 0 1 0 2.751 2.751 2.752 2.752 0 0 0 -2.751-2.748z" fill="#f9b087"/><path d="m52.5 211.194a2.5 2.5 0 0 1 -2.5-2.5v-18.608a2.5 2.5 0 0 1 2.919-2.465l6.7 1.139a2.5 2.5 0 1 1 -.838 4.929l-3.781-.642v15.647a2.5 2.5 0 0 1 -2.5 2.5z" fill="#f9b087"/></svg>