<svg width="24" height="24" viewBox="0 0 24 24" fill="none" xmlns="http://www.w3.org/2000/svg">
<path fill-rule="evenodd" clip-rule="evenodd" d="M9 4.30782C9 3.30637 8.06078 2.56454 7.13327 2.94222C2.93077 4.65347 0 8.51299 0 13C0 19.0751 5.37258 24 12 24C18.6274 24 24 19.0751 24 13C24 8.51299 21.0692 4.65347 16.8667 2.94222C15.9392 2.56454 15 3.30637 15 4.30782V4.30782C15 4.9868 15.4477 5.57501 16.0664 5.85455C19.0717 7.21225 21 10.0153 21 13C21 17.1779 17.2216 21 12 21C6.77838 21 3 17.1779 3 13C3 10.0153 4.92831 7.21225 7.93356 5.85455C8.55233 5.57501 9 4.9868 9 4.30782V4.30782Z" fill="#BAB3B3"/>
<rect x="10" width="4" height="14" rx="2" fill="#B0A9A9"/>
</svg>
