<svg id="user" xmlns="http://www.w3.org/2000/svg" viewBox="0 0 80 80.07">
  <defs>
    <clipPath id="clip-path" transform="translate(0 0)">
      <circle cx="40" cy="40" r="40" fill="none"/>
    </clipPath>
  </defs>
  <g id="background-group">
    <circle id="background" cx="40" cy="40" r="40" fill="#29a69c"/>
    <path id="background-shadow" d="M80,40A40,40,0,0,0,40,0V80A40,40,0,0,0,80,40Z" transform="translate(0 0)" fill="#27a096"/>
  </g>
  <g id="women-group">
    <g clip-path="url(#clip-path)">
      <g id="body">
        <path d="M57.51,25.94A17.51,17.51,0,1,0,40,43.45,17.5,17.5,0,0,0,57.51,25.94Z" transform="translate(0 0)" fill="#482b1b"/>
        <polygon points="45.86 63.43 39.93 80.07 34.14 63.43 34.14 50.59 45.86 50.59 45.86 63.43" fill="#eac8ad"/>
        <path d="M40,15c-5.69,0-14.68,3.23-14.68,18.38,0,8.75,3.41,12.88,4.65,14.46S37,54,40,54Z" transform="translate(0 0)" fill="#f2d7bc"/>
        <path d="M22.49,37c-.25-2.42.9-4.57,2.58-4.8s3.23,1.54,3.48,4S27.65,40.72,26,41,22.74,39.41,22.49,37Z" transform="translate(0 0)" fill="#f2d7bc"/>
        <path d="M40,15c5.69,0,14.69,3.23,14.69,18.38,0,8.75-3.41,12.88-4.66,14.46S43,54,40,54Z" transform="translate(0 0)" fill="#eac0a7"/>
        <path d="M57.51,37c.25-2.42-.9-4.57-2.57-4.8s-3.24,1.54-3.49,4S52.35,40.72,54,41,57.26,39.41,57.51,37Z" transform="translate(0 0)" fill="#eac0a7"/>
        <path d="M39.93,80.07v-16S35.56,63,34.59,59.45a12.69,12.69,0,0,1-.45-3.07s-9.55,3.23-11.68,6.56c-1.78,5.29-2.27,17.13-2.27,17.13Z" transform="translate(0 0)" fill="#eac8ad"/>
        <path d="M39.93,80.07v-16S44.3,63,45.26,59.45a12.69,12.69,0,0,0,.45-3.07s9.55,3.23,11.69,6.56c1.77,5.29,2.26,17.13,2.26,17.13Z" transform="translate(0 0)" fill="#eac8ad"/>
        <path d="M39.93,80.07v-16S35.56,63,34.59,59.45a12.69,12.69,0,0,1-.45-3.07s-9.55,3.23-11.68,6.56c-1.78,5.29-2.27,17.13-2.27,17.13Z" transform="translate(0 0)" fill="#eac8ad"/>
        <path d="M39.93,80.07v-16S44.3,63,45.26,59.45a12.69,12.69,0,0,0,.45-3.07s9.55,3.23,11.69,6.56c1.77,5.29,2.26,17.13,2.26,17.13Z" transform="translate(0 0)" fill="#eac8ad"/>
        <path d="M40,48.67c2.22,0,4-1.36,4-3H36C36,47.31,37.78,48.67,40,48.67Z" transform="translate(0 0)" fill="#fff"/>
        <path d="M39.17,10.63c-10.39,0-13.55,9.11-13.55,13.3-3.77,5.24.34,9.92,3.25,11.57V32.92c0-3.39,3.22-6.52,8.06-6,4.34.47,7.07-2,9.37-6.15C49.15,15.19,45.6,10.63,39.17,10.63Z" transform="translate(0 0)" fill="#482b1b"/>
        <path d="M45.86,19.06s2.43,9.86,9.08,13.13c1.18-8.86,1.88-7,0-11.66s-9.08-8.14-9.08-8.14Z" transform="translate(0 0)" fill="#482b1b"/>
      </g>
      <path id="clothe" d="M57.4,62.94c-1.78-2.78-8.72-5.48-11-6.3a6.5,6.5,0,0,1-13,0c-2.26.82-9.19,3.52-11,6.3-1.78,5.29-2.27,17.13-2.27,17.13H59.66S59.17,68.23,57.4,62.94Z" transform="translate(0 0)" fill="#faa21c"/>
      <path id="clothe-shadow" d="M59.66,80.07s-.49-11.84-2.26-17.13c-1.78-2.78-8.72-5.48-11-6.3a6.5,6.5,0,0,1-6.49,6.25V80.07Z" transform="translate(0 0)" fill="#f68e1f"/>
      <path id="clothe-neck" d="M31.29,57.46a8.74,8.74,0,0,0,17.28,0c-.88-.35-1.63-.64-2.15-.82a6.5,6.5,0,0,1-13,0C32.92,56.82,32.16,57.11,31.29,57.46Z" transform="translate(0 0)" fill="#39b54a"/>
      <path d="M45.86,8.44A5.86,5.86,0,1,0,40,14.29,5.86,5.86,0,0,0,45.86,8.44Z" transform="translate(0 0)" fill="#482b1b"/>
    </g>
  </g>
</svg>
